<svg enable-background="new 0 0 76.00 76.00" height="76" viewBox="0 0 76 76" width="76" xmlns="http://www.w3.org/2000/svg"><g stroke-linejoin="round" stroke-width=".2"><path d="m12.1906 33.9467 5.111 7.937-5.2372 8.2341h5.2688l1.4513-2.9101c.3891-.7826.7782-1.5983 1.1673-2.447h.0947c.368.8322.7677 1.6479 1.1988 2.447l1.546 2.9101h5.4265l-5.1426-8.4656 5.0795-7.7055h-5.2057l-1.3566 2.646c-.3996.7771-.7993 1.6039-1.1989 2.4802h-.0631c-.4049-.7882-.8255-1.5928-1.262-2.414l-1.5144-2.7122z"/><path d="m33.0385 38.7725c-2.5049 1.0374-3.781 2.8655-3.8285 5.4843-.0138 1.5561.5927 2.9551 1.8194 4.1971 1.2267 1.2419 3.1564 1.8986 5.7889 1.97 2.4704-.0315 4.4004-.6561 5.79-1.8739 1.3897-1.2177 2.0963-2.8394 2.1201-4.8652-.0305-1.397-.3962-2.5479-1.0971-3.4529-.7008-.9049-1.554-1.5596-2.5595-1.9641v-.1009c1.0435-.5537 1.8093-1.2547 2.2973-2.1029.488-.8481.7294-1.7509.7243-2.7084.0193-1.3833-.5047-2.628-1.572-3.7341-1.0674-1.1061-2.7946-1.6911-5.1815-1.7548-2.114.0222-3.8288.5688-5.1444 1.6399-1.3155 1.0711-1.9932 2.5335-2.033 4.3873-.0006.9701.2378 1.8729.7152 2.7085.4774.8355 1.1977 1.5365 2.1608 2.1028zm3.9811 8.0414c-.9672-.0288-1.7245-.3414-2.272-.9379-.5474-.5965-.819-1.3045-.8146-2.1239.0056-.7984.2376-1.4811.6961-2.0482.4586-.567 1.11-.9722 1.9544-1.2154 1.0086.2656 1.8263.6932 2.4532 1.2827s.9498 1.362.9687 2.3174c-.0133.7906-.2886 1.4383-.8261 1.943-.5374.5047-1.2573.7655-2.1597.7823zm.092-15.6117c.9063.0274 1.564.3091 1.973.8454.409.5362.6101 1.1629.6033 1.8799-.0184.6828-.2344 1.2688-.6482 1.758-.4137.4893-.9151.8229-1.5041 1.001-.8656-.2664-1.5721-.6421-2.1197-1.1271-.5476-.4851-.8302-1.0963-.8479-1.8337 0-.694.212-1.2828.6359-1.7664.4239-.4837 1.0598-.736 1.9077-.7571z"/><path d="m60.3314 27.8667c-.4089-.0563-1.0325-.0451-1.8707.0336-3.3374.1573-6.0572 1.2247-8.1594 3.2022-1.1227 1.1065-2.005 2.4862-2.6469 4.1392-.6418 1.653-.969 3.5238-.9813 5.6125-.0068 2.7372.6714 5.0052 2.0343 6.804 1.363 1.7987 3.4511 2.7312 6.2645 2.7974 2.2832-.0525 4.1019-.8167 5.4563-2.2927 1.3544-1.4761 2.0475-3.3494 2.0808-5.6199-.0456-2.3277-.6599-4.1121-1.843-5.3532s-2.6617-1.8676-4.4359-1.8795c-1.9866.0338-3.5097.6081-4.5692 1.7228h-.0993c.2606-1.2924.9396-2.4206 2.0372-3.3847 1.0975-.964 2.7386-1.5542 4.9232-1.7706.7105-.0731 1.3136-.0955 1.8094-.0674zm-5.4257 18.9155c-1.154-.0395-2.0163-.4947-2.5867-1.3657-.5705-.8709-.8781-1.9207-.9229-3.1492-.0056-.6032.0717-1.0512.2317-1.3442.2408-.5644.6201-1.0296 1.1382-1.3959.518-.3662 1.1209-.5557 1.8086-.5686 1.0753.0316 1.8796.4164 2.4127 1.1546.5332.7381.7994 1.64.7987 2.7055-.0104 1.1603-.2711 2.1053-.7821 2.8348-.5111.7295-1.2105 1.1057-2.0982 1.1287z"/></g></svg>